<?xml version="1.0" standalone="no"?>
<!DOCTYPE svg PUBLIC "-//W3C//DTD SVG 20010904//EN"
 "http://www.w3.org/TR/2001/REC-SVG-20010904/DTD/svg10.dtd">
<svg version="1.0" xmlns="http://www.w3.org/2000/svg"
 width="872.000000pt" height="1200.000000pt" viewBox="0 0 872.000000 1200.000000"
 preserveAspectRatio="xMidYMid meet">
<metadata>
Created by potrace 1.15, written by Peter Selinger 2001-2017
</metadata>
<g transform="translate(0.000000,1200.000000) scale(0.100000,-0.100000)"
fill="#000000" stroke="none">
<path d="M2720 9710 c0 -7 543 -10 1610 -10 1067 0 1610 3 1610 10 0 7 -543
10 -1610 10 -1067 0 -1610 -3 -1610 -10z"/>
<path d="M2720 9080 c0 -7 393 -10 1160 -10 767 0 1160 3 1160 10 0 7 -393 10
-1160 10 -767 0 -1160 -3 -1160 -10z"/>
<path d="M2720 8580 c0 -7 367 -10 1080 -10 713 0 1080 3 1080 10 0 7 -367 10
-1080 10 -713 0 -1080 -3 -1080 -10z"/>
<path d="M2730 7990 c0 -7 460 -10 1360 -10 900 0 1360 3 1360 10 0 7 -460 10
-1360 10 -900 0 -1360 -3 -1360 -10z"/>
<path d="M2730 7380 c0 -7 460 -10 1360 -10 900 0 1360 3 1360 10 0 7 -460 10
-1360 10 -900 0 -1360 -3 -1360 -10z"/>
<path d="M2730 6730 c0 -7 460 -10 1360 -10 900 0 1360 3 1360 10 0 7 -460 10
-1360 10 -900 0 -1360 -3 -1360 -10z"/>
<path d="M2730 6460 c0 -7 242 -10 705 -10 463 0 705 3 705 10 0 7 -242 10
-705 10 -463 0 -705 -3 -705 -10z"/>
<path d="M2730 5990 c0 -7 442 -10 1305 -10 863 0 1305 3 1305 10 0 7 -442 10
-1305 10 -863 0 -1305 -3 -1305 -10z"/>
<path d="M2730 5180 c0 -7 442 -10 1305 -10 863 0 1305 3 1305 10 0 7 -442 10
-1305 10 -863 0 -1305 -3 -1305 -10z"/>
<path d="M2730 4200 c0 -7 442 -10 1305 -10 863 0 1305 3 1305 10 0 7 -442 10
-1305 10 -863 0 -1305 -3 -1305 -10z"/>
</g>
</svg>
